<svg width="800" height="500" xmlns="http://www.w3.org/2000/svg">
  <path d="M 210.19607843137254 106.66666666666667 L 216.47058823529412 127.05882352941177 L 241.5686274509804 116.07843137254902 L 258.8235294117647 92.54901960784314 L 294.9019607843137 69.01960784313725 L 312.156862745098 45.490196078431374 L 337.2549019607843 56.470588235294116 L 360.78431372549016 70.58823529411765 L 371.7647058823529 90.98039215686275 L 379.6078431372549 112.94117647058823 L 390.5882352941176 136.47058823529412 L 398.4313725490196 153.72549019607843 L 431.37254901960785 144.31372549019608 L 451.7647058823529 156.86274509803923 L 470.5882352941176 169.41176470588235 L 484.70588235294116 181.9607843137255 L 506.6666666666667 202.35294117647058 L 525.4901960784314 170.98039215686273 L 528.6274509803922 142.7450980392157 L 541.1764705882352 108.23529411764706 L 545.8823529411765 144.31372549019608 L 530.1960784313726 175.68627450980392 L 523.9215686274509 200.7843137254902 L 490.98039215686276 188.23529411764704 L 475.29411764705884 167.84313725490196 L 453.3333333333333 158.4313725490196 L 432.94117647058823 152.15686274509804 L 414.11764705882354 153.72549019607843 L 385.88235294117646 127.05882352941177 L 349.80392156862746 142.7450980392157 L 326.27450980392155 161.5686274509804 L 310.5882352941176 174.11764705882354 L 294.9019607843137 197.64705882352942 L 290.19607843137254 229.01960784313727 L 280.78431372549016 244.70588235294116 L 272.94117647058823 269.80392156862746 L 266.6666666666667 296.4705882352941 L 261.96078431372547 323.1372549019608 L 255.68627450980392 359.2156862745098 L 302.7450980392157 360.78431372549016 L 324.70588235294116 365.4901960784314 L 356.078431372549 367.05882352941177 L 376.4705882352941 362.3529411764706 L 392.156862745098 367.05882352941177 L 403.1372549019608 382.7450980392157 L 412.54901960784315 393.72549019607845" stroke="#ef4444" stroke-width="3" fill="none" stroke-linecap="round" stroke-linejoin="round"/>
</svg>