<svg width="800" height="500" xmlns="http://www.w3.org/2000/svg">
  <path d="M 210.19607843137254 101.96078431372548 L 222.7450980392157 123.92156862745098 L 250.98039215686273 103.52941176470588 L 285.4901960784314 72.15686274509804 L 320 47.05882352941176 L 341.96078431372547 53.333333333333336 L 360.78431372549016 72.15686274509804 L 357.6470588235294 109.80392156862744 L 363.921568627451 128.62745098039215 L 390.5882352941176 139.6078431372549 L 406.27450980392155 153.72549019607843 L 440.78431372549016 149.01960784313727 L 458.03921568627453 160 L 480 174.11764705882354 L 500.3921568627451 188.23529411764704 L 519.2156862745098 192.94117647058823 L 531.7647058823529 145.88235294117646 L 541.1764705882352 111.37254901960785 L 528.6274509803922 194.50980392156862 L 494.11764705882354 178.8235294117647 L 450.19607843137254 153.72549019607843 L 421.96078431372547 145.88235294117646 L 376.4705882352941 131.76470588235293 L 346.6666666666667 145.88235294117646 L 318.4313725490196 183.52941176470588 L 301.1764705882353 183.52941176470588 L 291.7647058823529 214.90196078431373 L 279.2156862745098 243.13725490196077 L 266.6666666666667 271.37254901960785 L 261.96078431372547 327.84313725490193 L 254.11764705882354 351.37254901960785 L 307.45098039215685 365.4901960784314 L 348.2352941176471 363.921568627451 L 381.1764705882353 359.2156862745098 L 412.54901960784315 390.5882352941176 L 428.2352941176471 410.98039215686276 L 483.1372549019608 365.4901960784314 L 523.9215686274509 340.3921568627451 L 550.5882352941177 334.11764705882354 L 570.9803921568628 354.5098039215686 L 575.6862745098039 385.88235294117646 L 596.0784313725491 412.54901960784315 L 638.4313725490196 417.2549019607843 L 597.6470588235294 374.9019607843137 L 599.2156862745098 329.4117647058824 L 608.6274509803922 305.88235294117646 L 625.8823529411765 288.62745098039215 L 616.4705882352941 263.52941176470586 L 574.1176470588235 258.8235294117647 L 552.156862745098 279.2156862745098 L 585.0980392156863 244.70588235294116 L 641.5686274509803 298.03921568627453 L 625.8823529411765 330.98039215686276 L 630.5882352941177 363.921568627451 L 660.3921568627451 378.03921568627453 L 674.5098039215686 346.6666666666667 L 644.7058823529412 373.3333333333333 L 624.313725490196 345.09803921568624 L 630.5882352941177 315.29411764705884 L 630.5882352941177 282.3529411764706 L 589.8039215686274 381.1764705882353 L 567.843137254902 338.8235294117647 L 492.54901960784315 346.6666666666667 L 451.7647058823529 367.05882352941177 L 406.27450980392155 373.3333333333333 L 367.05882352941177 359.2156862745098 L 324.70588235294116 362.3529411764706 L 280.78431372549016 352.94117647058823 L 285.4901960784314 302.7450980392157 L 299.6078431372549 282.3529411764706 L 324.70588235294116 294.9019607843137 L 359.2156862745098 326.27450980392155 L 409.4117647058823 340.3921568627451 L 454.9019607843137 338.8235294117647 L 495.6862745098039 312.156862745098 L 497.2549019607843 261.96078431372547 L 475.29411764705884 235.2941176470588 L 448.62745098039215 230.58823529411765 L 415.6862745098039 232.15686274509804 L 401.5686274509804 266.6666666666667 L 412.54901960784315 296.4705882352941 L 437.6470588235294 305.88235294117646 L 456.4705882352941 272.94117647058823" stroke="#ef4444" stroke-width="3" fill="none" stroke-linecap="round" stroke-linejoin="round"/>
</svg>